<?xml version="1.0" encoding="UTF-8" standalone="no"?>
<!-- Created with Inkscape (http://www.inkscape.org/) -->

<svg
   xmlns:dc="http://purl.org/dc/elements/1.1/"
   xmlns:cc="http://creativecommons.org/ns#"
   xmlns:rdf="http://www.w3.org/1999/02/22-rdf-syntax-ns#"
   xmlns:svg="http://www.w3.org/2000/svg"
   xmlns="http://www.w3.org/2000/svg"
   xmlns:sodipodi="http://sodipodi.sourceforge.net/DTD/sodipodi-0.dtd"
   xmlns:inkscape="http://www.inkscape.org/namespaces/inkscape"
   id="svg6822"
   version="1.1"
   inkscape:version="0.48.2 r9819"
   width="62.5"
   height="62.5"
   xml:space="preserve"
   sodipodi:docname="next.svg"
   inkscape:export-filename="C:\Users\Matt\Documents\Dev\libgdx\box_puzzle\android\assets\next.png"
   inkscape:export-xdpi="138.24001"
   inkscape:export-ydpi="138.24001"><metadata
     id="metadata6828"><rdf:RDF><cc:Work
         rdf:about=""><dc:format>image/svg+xml</dc:format><dc:type
           rdf:resource="http://purl.org/dc/dcmitype/StillImage" /><dc:title></dc:title></cc:Work></rdf:RDF></metadata><defs
     id="defs6826"><clipPath
       clipPathUnits="userSpaceOnUse"
       id="clipPath6836"><path
         d="M 0,50 50,50 50,0 0,0 0,50 z"
         id="path6838" /></clipPath></defs><sodipodi:namedview
     pagecolor="#ffffff"
     bordercolor="#666666"
     borderopacity="1"
     objecttolerance="10"
     gridtolerance="10"
     guidetolerance="10"
     inkscape:pageopacity="0"
     inkscape:pageshadow="2"
     inkscape:window-width="874"
     inkscape:window-height="794"
     id="namedview6824"
     showgrid="false"
     inkscape:zoom="3.776"
     inkscape:cx="-10.063559"
     inkscape:cy="31.25"
     inkscape:window-x="597"
     inkscape:window-y="116"
     inkscape:window-maximized="1"
     inkscape:current-layer="g6830" /><g
     inkscape:groupmode="layer"
     id="layer3"
     inkscape:label="Layer" /><g
     id="g6830"
     inkscape:groupmode="layer"
     inkscape:label="evil-icons"
     transform="matrix(1.25,0,0,-1.25,0,62.5)"><g
       id="g6832"
       style="fill:#ffffff;fill-opacity:1"
       transform="matrix(0.99997628,-0.0068878,0.0068878,0.99997628,-0.17160033,0.1727883)"
       inkscape:export-filename="C:\Users\Matt\Documents\Dev\libgdx\box_puzzle\android\assets\g6832.png"
       inkscape:export-xdpi="138.24001"
       inkscape:export-ydpi="138.24001"><g
         id="g6834"
         clip-path="url(#clipPath6836)"
         style="fill:#ffffff;fill-opacity:1"><g
           id="g6840"
           transform="translate(25,40.0698)"
           style="fill:#ffffff;fill-opacity:1"><path
             d="m 0,0 c -8.31,0 -15.07,-6.76 -15.07,-15.07 0,-8.309 6.76,-15.07 15.07,-15.07 8.31,0 15.07,6.761 15.07,15.07 C 15.07,-6.76 8.31,0 0,0 m 0,-32 c -9.335,0 -16.93,7.595 -16.93,16.93 0,9.336 7.595,16.93 16.93,16.93 9.335,0 16.93,-7.594 16.93,-16.93 C 16.93,-24.405 9.335,-32 0,-32"
             style="fill:#ffffff;fill-opacity:1;fill-rule:nonzero;stroke:none"
             id="path6842"
             inkscape:connector-curvature="0" /></g><g
           id="g6844"
           transform="translate(25.3423,15.3423)"
           style="fill:#ffffff;fill-opacity:1"><path
             d="M 0,0 -9.658,9.658 0,19.315 1.315,18 -7.027,9.658 1.315,1.315 0,0 z"
             style="fill:#ffffff;fill-opacity:1;fill-rule:nonzero;stroke:none"
             id="path6846"
             inkscape:connector-curvature="0" /></g><path
           d="m 34,24 -17,0 0,2 17,0 0,-2 z"
           style="fill:#ffffff;fill-opacity:1;fill-rule:nonzero;stroke:none"
           id="path6848"
           inkscape:connector-curvature="0" /></g></g></g></svg>