<?xml version="1.0" encoding="UTF-8" standalone="no"?>
<!-- Created with Inkscape (http://www.inkscape.org/) -->

<svg
   xmlns:dc="http://purl.org/dc/elements/1.1/"
   xmlns:cc="http://creativecommons.org/ns#"
   xmlns:rdf="http://www.w3.org/1999/02/22-rdf-syntax-ns#"
   xmlns:svg="http://www.w3.org/2000/svg"
   xmlns="http://www.w3.org/2000/svg"
   xmlns:sodipodi="http://sodipodi.sourceforge.net/DTD/sodipodi-0.dtd"
   xmlns:inkscape="http://www.inkscape.org/namespaces/inkscape"
   width="64"
   height="64"
   id="svg3832"
   version="1.1"
   inkscape:version="0.48.2 r9819"
   sodipodi:docname="green_goal.svg"
   inkscape:export-filename="/Users/Matt/Documents/Dev/libgdx/box_puzzle/android/assets/480/green_goal.png"
   inkscape:export-xdpi="67.5"
   inkscape:export-ydpi="67.5">
  <defs
     id="defs3834" />
  <sodipodi:namedview
     id="base"
     pagecolor="#ffffff"
     bordercolor="#666666"
     borderopacity="1.0"
     inkscape:pageopacity="0.0"
     inkscape:pageshadow="2"
     inkscape:zoom="17.34375"
     inkscape:cx="24.610352"
     inkscape:cy="31.397283"
     inkscape:document-units="px"
     inkscape:current-layer="layer1"
     showgrid="false"
     inkscape:window-width="1142"
     inkscape:window-height="753"
     inkscape:window-x="325"
     inkscape:window-y="149"
     inkscape:window-maximized="0" />
  <metadata
     id="metadata3837">
    <rdf:RDF>
      <cc:Work
         rdf:about="">
        <dc:format>image/svg+xml</dc:format>
        <dc:type
           rdf:resource="http://purl.org/dc/dcmitype/StillImage" />
        <dc:title></dc:title>
      </cc:Work>
    </rdf:RDF>
  </metadata>
  <g
     inkscape:groupmode="layer"
     id="layer3"
     inkscape:label="Layer#1">
    <rect
       style="fill:#47515d;fill-opacity:1;stroke:#ffffff;stroke-width:0;stroke-miterlimit:4;stroke-opacity:1;stroke-dasharray:none"
       id="rect5217"
       width="64"
       height="64"
       x="0"
       y="-7.1054274e-15" />
  </g>
  <g
     inkscape:label="Layer 1"
     inkscape:groupmode="layer"
     id="layer1"
     transform="translate(0,-988.36218)">
    <path
       sodipodi:type="arc"
       style="fill:#55dd65;fill-opacity:1;stroke:#ffffff;stroke-width:0;stroke-miterlimit:4;stroke-opacity:1;stroke-dasharray:none"
       id="path5213"
       sodipodi:cx="110.75"
       sodipodi:cy="-25.25"
       sodipodi:rx="8.75"
       sodipodi:ry="16.75"
       d="m 119.5,-25.25 c 0,9.25077 -3.91751,16.75 -8.75,16.75 -4.83249,0 -8.75,-7.49923 -8.75,-16.75 0,-9.25077 3.91751,-16.75 8.75,-16.75 4.83249,0 8.75,7.49923 8.75,16.75 z"
       transform="matrix(2.9714286,0,0,1.5522388,-297.08572,1059.5562)" />
    <path
       sodipodi:type="arc"
       style="fill:#ffffff;fill-opacity:1;stroke:#ffffff;stroke-width:0;stroke-miterlimit:4;stroke-opacity:1;stroke-dasharray:none"
       id="path6482"
       sodipodi:cx="-4.6875"
       sodipodi:cy="11.4375"
       sodipodi:rx="14.4375"
       sodipodi:ry="9.1875"
       d="m 9.75,11.4375 c 0,5.074116 -6.4638889,9.1875 -14.4375,9.1875 -7.973611,0 -14.4375,-4.113384 -14.4375,-9.1875 0,-5.0741161 6.463889,-9.1875 14.4375,-9.1875 7.9736111,0 14.4375,4.1133839 14.4375,9.1875 z"
       transform="matrix(1.5238095,0,0,2.3945578,39.142857,992.97443)" />
    <path
       sodipodi:type="arc"
       style="fill:#55dd65;fill-opacity:0.15686275;stroke:#ffffff;stroke-width:0;stroke-miterlimit:4;stroke-opacity:1;stroke-dasharray:none"
       id="path6484"
       sodipodi:cx="-11.3125"
       sodipodi:cy="22.0625"
       sodipodi:rx="6.6875"
       sodipodi:ry="7.8125"
       d="m -4.625,22.0625 c 0,4.314725 -2.9940957,7.8125 -6.6875,7.8125 -3.693404,0 -6.6875,-3.497775 -6.6875,-7.8125 0,-4.314725 2.994096,-7.8125 6.6875,-7.8125 3.6934043,0 6.6875,3.497775 6.6875,7.8125 z"
       transform="matrix(3.2897196,0,0,2.816,69.214953,958.23418)" />
  </g>
  <g
     inkscape:groupmode="layer"
     id="layer2"
     inkscape:label="Layer" />
</svg>
