<?xml version="1.0" encoding="UTF-8" standalone="no"?>
<!-- Created with Inkscape (http://www.inkscape.org/) -->

<svg
   xmlns:dc="http://purl.org/dc/elements/1.1/"
   xmlns:cc="http://creativecommons.org/ns#"
   xmlns:rdf="http://www.w3.org/1999/02/22-rdf-syntax-ns#"
   xmlns:svg="http://www.w3.org/2000/svg"
   xmlns="http://www.w3.org/2000/svg"
   xmlns:sodipodi="http://sodipodi.sourceforge.net/DTD/sodipodi-0.dtd"
   xmlns:inkscape="http://www.inkscape.org/namespaces/inkscape"
   width="128"
   height="128"
   id="svg3030"
   version="1.1"
   inkscape:version="0.48.2 r9819"
   sodipodi:docname="icon.svg"
   inkscape:export-filename="C:\Users\Matt\Pictures\icon.png"
   inkscape:export-xdpi="359.64999"
   inkscape:export-ydpi="359.64999">
  <defs
     id="defs3032">
    <pattern
       patternUnits="userSpaceOnUse"
       width="128.125"
       height="128.09375"
       patternTransform="translate(-0.0625,924.3125)"
       id="pattern3046">
      <path
         id="rect4084"
         d="m 0.0625,0.04968 128,0 0,128.00002 -128,0 z"
         style="fill:#47515d;fill-opacity:1;stroke:#87aade;stroke-width:0;stroke-linejoin:bevel;stroke-miterlimit:4"
         inkscape:connector-curvature="0" />
    </pattern>
  </defs>
  <sodipodi:namedview
     id="base"
     pagecolor="#ffffff"
     bordercolor="#666666"
     borderopacity="1.0"
     inkscape:pageopacity="0.0"
     inkscape:pageshadow="2"
     inkscape:zoom="4.0000001"
     inkscape:cx="-21.646957"
     inkscape:cy="54.326681"
     inkscape:document-units="px"
     inkscape:current-layer="layer1"
     showgrid="false"
     inkscape:snap-global="true"
     inkscape:snap-object-midpoints="false"
     inkscape:snap-midpoints="false"
     inkscape:object-nodes="false"
     fit-margin-top="0"
     fit-margin-left="0"
     fit-margin-right="0"
     fit-margin-bottom="0"
     inkscape:window-width="1920"
     inkscape:window-height="1028"
     inkscape:window-x="-8"
     inkscape:window-y="-8"
     inkscape:window-maximized="1" />
  <metadata
     id="metadata3035">
    <rdf:RDF>
      <cc:Work
         rdf:about="">
        <dc:format>image/svg+xml</dc:format>
        <dc:type
           rdf:resource="http://purl.org/dc/dcmitype/StillImage" />
        <dc:title />
      </cc:Work>
    </rdf:RDF>
  </metadata>
  <g
     inkscape:label="Layer 1"
     inkscape:groupmode="layer"
     id="layer1"
     transform="translate(0,-924.36218)">
    <rect
       style="fill:#47515d;fill-opacity:1;stroke:#87aade;stroke-width:0;stroke-linejoin:bevel;stroke-miterlimit:4;stroke-dasharray:none"
       id="rect4084-1"
       width="128"
       height="128"
       x="0"
       y="924.36218"
       ry="25"
       rx="25" />
    <path
       sodipodi:type="arc"
       style="fill:#ffffff;fill-opacity:1;stroke:#ffffff;stroke-width:0;stroke-miterlimit:4;stroke-opacity:1;stroke-dasharray:none"
       id="path5213-8"
       sodipodi:cx="110.75"
       sodipodi:cy="-25.25"
       sodipodi:rx="8.75"
       sodipodi:ry="16.75"
       d="m 119.5,-25.25 c 0,9.25077 -3.91751,16.75 -8.75,16.75 -4.83249,0 -8.75,-7.49923 -8.75,-16.75 0,-9.25077 3.91751,-16.75 8.75,-16.75 4.83249,0 8.75,7.49923 8.75,16.75 z"
       transform="matrix(1.3714286,0,0,0.71641791,-123.88572,1042.4517)" />
    <path
       sodipodi:type="arc"
       style="fill:#ffffff;fill-opacity:1;stroke:#ffffff;stroke-width:0;stroke-miterlimit:4;stroke-opacity:1;stroke-dasharray:none"
       id="path5213-8-2"
       sodipodi:cx="110.75"
       sodipodi:cy="-25.25"
       sodipodi:rx="8.75"
       sodipodi:ry="16.75"
       d="m 119.5,-25.25 c 0,9.25077 -3.91751,16.75 -8.75,16.75 -4.83249,0 -8.75,-7.49923 -8.75,-16.75 0,-9.25077 3.91751,-16.75 8.75,-16.75 4.83249,0 8.75,7.49923 8.75,16.75 z"
       transform="matrix(1.3714286,0,0,0.71641791,-87.885717,1042.4517)" />
    <path
       sodipodi:type="arc"
       style="fill:#ffffff;fill-opacity:1;stroke:#ffffff;stroke-width:0;stroke-miterlimit:4;stroke-opacity:1;stroke-dasharray:none"
       id="path5213-8-4"
       sodipodi:cx="110.75"
       sodipodi:cy="-25.25"
       sodipodi:rx="8.75"
       sodipodi:ry="16.75"
       d="m 119.5,-25.25 c 0,9.25077 -3.91751,16.75 -8.75,16.75 -4.83249,0 -8.75,-7.49923 -8.75,-16.75 0,-9.25077 3.91751,-16.75 8.75,-16.75 4.83249,0 8.75,7.49923 8.75,16.75 z"
       transform="matrix(1.3714286,0,0,0.71641791,-51.885717,1042.4517)" />
    <path
       sodipodi:type="arc"
       style="fill:#ffffff;fill-opacity:1;stroke:#ffffff;stroke-width:0;stroke-miterlimit:4;stroke-opacity:1;stroke-dasharray:none"
       id="path5213-8-5-5"
       sodipodi:cx="110.75"
       sodipodi:cy="-25.25"
       sodipodi:rx="8.75"
       sodipodi:ry="16.75"
       d="m 119.5,-25.25 c 0,9.25077 -3.91751,16.75 -8.75,16.75 -4.83249,0 -8.75,-7.49923 -8.75,-16.75 0,-9.25077 3.91751,-16.75 8.75,-16.75 4.83249,0 8.75,7.49923 8.75,16.75 z"
       transform="matrix(1.3714286,0,0,0.71641791,-51.885717,1006.4517)" />
    <path
       sodipodi:type="arc"
       style="fill:#ffffff;fill-opacity:1;stroke:#ffffff;stroke-width:0;stroke-miterlimit:4;stroke-opacity:1;stroke-dasharray:none"
       id="path5213-8-5-1"
       sodipodi:cx="110.75"
       sodipodi:cy="-25.25"
       sodipodi:rx="8.75"
       sodipodi:ry="16.75"
       d="m 119.5,-25.25 c 0,9.25077 -3.91751,16.75 -8.75,16.75 -4.83249,0 -8.75,-7.49923 -8.75,-16.75 0,-9.25077 3.91751,-16.75 8.75,-16.75 4.83249,0 8.75,7.49923 8.75,16.75 z"
       transform="matrix(1.3714286,0,0,0.71641791,-87.88572,1006.4517)" />
    <path
       sodipodi:type="arc"
       style="fill:#ffffff;fill-opacity:1;stroke:#ffffff;stroke-width:0;stroke-miterlimit:4;stroke-opacity:1;stroke-dasharray:none"
       id="path5213-8-5-7"
       sodipodi:cx="110.75"
       sodipodi:cy="-25.25"
       sodipodi:rx="8.75"
       sodipodi:ry="16.75"
       d="m 119.5,-25.25 c 0,9.25077 -3.91751,16.75 -8.75,16.75 -4.83249,0 -8.75,-7.49923 -8.75,-16.75 0,-9.25077 3.91751,-16.75 8.75,-16.75 4.83249,0 8.75,7.49923 8.75,16.75 z"
       transform="matrix(1.3714286,0,0,0.71641791,-123.88572,970.45173)" />
    <path
       sodipodi:type="arc"
       style="fill:#ffffff;fill-opacity:1;stroke:#ffffff;stroke-width:0;stroke-miterlimit:4;stroke-opacity:1;stroke-dasharray:none"
       id="path5213-8-5-11"
       sodipodi:cx="110.75"
       sodipodi:cy="-25.25"
       sodipodi:rx="8.75"
       sodipodi:ry="16.75"
       d="m 119.5,-25.25 c 0,9.25077 -3.91751,16.75 -8.75,16.75 -4.83249,0 -8.75,-7.49923 -8.75,-16.75 0,-9.25077 3.91751,-16.75 8.75,-16.75 4.83249,0 8.75,7.49923 8.75,16.75 z"
       transform="matrix(1.3714286,0,0,0.71641791,-87.885717,970.45173)" />
    <path
       sodipodi:type="arc"
       style="fill:#ffffff;fill-opacity:1;stroke:#ffffff;stroke-width:0;stroke-miterlimit:4;stroke-opacity:1;stroke-dasharray:none"
       id="path5213-8-5-52"
       sodipodi:cx="110.75"
       sodipodi:cy="-25.25"
       sodipodi:rx="8.75"
       sodipodi:ry="16.75"
       d="m 119.5,-25.25 a 8.75,16.75 0 1 1 -17.5,0 8.75,16.75 0 1 1 17.5,0 z"
       transform="matrix(1.2571429,0,0,0.65671642,-39.228576,968.94427)" />
    <path
       sodipodi:type="arc"
       style="fill:#55cfdd;fill-opacity:1;stroke:#ffffff;stroke-width:0;stroke-miterlimit:4;stroke-opacity:1;stroke-dasharray:none"
       id="path5213"
       sodipodi:cx="110.75"
       sodipodi:cy="-25.25"
       sodipodi:rx="8.75"
       sodipodi:ry="16.75"
       d="m 119.5,-25.25 c 0,9.25077 -3.91751,16.75 -8.75,16.75 -4.83249,0 -8.75,-7.49923 -8.75,-16.75 0,-9.25077 3.91751,-16.75 8.75,-16.75 4.83249,0 8.75,7.49923 8.75,16.75 z"
       transform="matrix(1.3714286,0,0,0.71641791,-87.885717,1006.4517)" />
    <path
       sodipodi:type="arc"
       style="fill:#ffffff;fill-opacity:1;stroke:#ffffff;stroke-width:0;stroke-miterlimit:4;stroke-opacity:1;stroke-dasharray:none"
       id="path6482"
       sodipodi:cx="-4.6875"
       sodipodi:cy="11.4375"
       sodipodi:rx="14.4375"
       sodipodi:ry="9.1875"
       d="m 9.75,11.4375 c 0,5.074116 -6.4638889,9.1875 -14.4375,9.1875 -7.973611,0 -14.4375,-4.113384 -14.4375,-9.1875 0,-5.0741161 6.463889,-9.1875 14.4375,-9.1875 7.9736111,0 14.4375,4.1133839 14.4375,9.1875 z"
       transform="matrix(0.70329671,0,0,1.1051805,67.296709,975.72171)" />
    <path
       sodipodi:type="arc"
       style="fill:#55cfdd;fill-opacity:0.15686275;stroke:#ffffff;stroke-width:0;stroke-miterlimit:4;stroke-opacity:1;stroke-dasharray:none"
       id="path6484"
       sodipodi:cx="-11.3125"
       sodipodi:cy="22.0625"
       sodipodi:rx="6.6875"
       sodipodi:ry="7.8125"
       d="m -4.625,22.0625 c 0,4.314725 -2.9940957,7.8125 -6.6875,7.8125 -3.693404,0 -6.6875,-3.497775 -6.6875,-7.8125 0,-4.314725 2.994096,-7.8125 6.6875,-7.8125 3.6934043,0 6.6875,3.497775 6.6875,7.8125 z"
       transform="matrix(1.5183322,0,0,1.2996923,81.176139,959.68775)" />
    <path
       sodipodi:type="arc"
       style="fill:#55cfdd;fill-opacity:1;stroke:#ffffff;stroke-width:0;stroke-miterlimit:4;stroke-opacity:1;stroke-dasharray:none"
       id="path5213-7"
       sodipodi:cx="110.75"
       sodipodi:cy="-25.25"
       sodipodi:rx="8.75"
       sodipodi:ry="16.75"
       d="m 119.5,-25.25 c 0,9.25077 -3.91751,16.75 -8.75,16.75 -4.83249,0 -8.75,-7.49923 -8.75,-16.75 0,-9.25077 3.91751,-16.75 8.75,-16.75 4.83249,0 8.75,7.49923 8.75,16.75 z"
       transform="matrix(1.3714286,0,0,0.71641791,-51.885717,1042.4517)" />
    <path
       sodipodi:type="arc"
       style="fill:#dd5555;fill-opacity:1;stroke:#ffffff;stroke-width:0;stroke-miterlimit:4;stroke-opacity:1;stroke-dasharray:none"
       id="path5213-2"
       sodipodi:cx="110.75"
       sodipodi:cy="-25.25"
       sodipodi:rx="8.75"
       sodipodi:ry="16.75"
       d="m 119.5,-25.25 a 8.75,16.75 0 1 1 -17.5,0 8.75,16.75 0 1 1 17.5,0 z"
       transform="matrix(1.3714286,0,0,0.71641791,-51.885717,970.45173)" />
    <path
       sodipodi:type="arc"
       style="fill:#ffffff;fill-opacity:1;stroke:#ffffff;stroke-width:0;stroke-miterlimit:4;stroke-opacity:1;stroke-dasharray:none"
       id="path6482-3"
       sodipodi:cx="-4.6875"
       sodipodi:cy="11.4375"
       sodipodi:rx="14.4375"
       sodipodi:ry="9.1875"
       d="m 9.75,11.4375 c 0,5.074116 -6.4638889,9.1875 -14.4375,9.1875 -7.973611,0 -14.4375,-4.113384 -14.4375,-9.1875 0,-5.0741161 6.463889,-9.1875 14.4375,-9.1875 7.9736111,0 14.4375,4.1133839 14.4375,9.1875 z"
       transform="matrix(0.73142855,0,0,1.1493878,103.42857,939.21608)" />
    <path
       sodipodi:type="arc"
       style="fill:#dd5555;fill-opacity:0.29411765;stroke:#ffffff;stroke-width:0;stroke-miterlimit:4;stroke-opacity:1;stroke-dasharray:none"
       id="path6484-2"
       sodipodi:cx="-11.3125"
       sodipodi:cy="22.0625"
       sodipodi:rx="6.6875"
       sodipodi:ry="7.8125"
       d="m -4.625,22.0625 c 0,4.314725 -2.9940957,7.8125 -6.6875,7.8125 -3.693404,0 -6.6875,-3.497775 -6.6875,-7.8125 0,-4.314725 2.994096,-7.8125 6.6875,-7.8125 3.6934043,0 6.6875,3.497775 6.6875,7.8125 z"
       transform="matrix(1.5790654,0,0,1.35168,117.86318,922.54076)" />
    <path
       sodipodi:type="arc"
       style="fill:#dd5555;fill-opacity:1;stroke:#ffffff;stroke-width:0;stroke-miterlimit:4;stroke-opacity:1;stroke-dasharray:none"
       id="path5213-2-2"
       sodipodi:cx="110.75"
       sodipodi:cy="-25.25"
       sodipodi:rx="8.75"
       sodipodi:ry="16.75"
       d="m 119.5,-25.25 a 8.75,16.75 0 1 1 -17.5,0 8.75,16.75 0 1 1 17.5,0 z"
       transform="matrix(1.3714286,0,0,0.71641791,-123.88572,1006.4517)" />
    <path
       sodipodi:type="arc"
       style="fill:#d5dd55;fill-opacity:1;stroke:#ffffff;stroke-width:0;stroke-miterlimit:4;stroke-opacity:1;stroke-dasharray:none"
       id="path5213-1"
       sodipodi:cx="110.75"
       sodipodi:cy="-25.25"
       sodipodi:rx="8.75"
       sodipodi:ry="16.75"
       d="m 119.5,-25.25 c 0,9.25077 -3.91751,16.75 -8.75,16.75 -4.83249,0 -8.75,-7.49923 -8.75,-16.75 0,-9.25077 3.91751,-16.75 8.75,-16.75 4.83249,0 8.75,7.49923 8.75,16.75 z"
       transform="matrix(1.3714286,0,0,0.71641791,-87.885717,970.45173)" />
    <path
       sodipodi:type="arc"
       style="fill:#ffffff;fill-opacity:1;stroke:#ffffff;stroke-width:0;stroke-miterlimit:4;stroke-opacity:1;stroke-dasharray:none"
       id="path6482-6"
       sodipodi:cx="-4.6875"
       sodipodi:cy="11.4375"
       sodipodi:rx="14.4375"
       sodipodi:ry="9.1875"
       d="m 9.75,11.4375 c 0,5.074116 -6.4638889,9.1875 -14.4375,9.1875 -7.973611,0 -14.4375,-4.113384 -14.4375,-9.1875 0,-5.0741161 6.463889,-9.1875 14.4375,-9.1875 7.9736111,0 14.4375,4.1133839 14.4375,9.1875 z"
       transform="matrix(0.70329669,0,0,1.1051805,67.2967,939.72173)" />
    <path
       sodipodi:type="arc"
       style="fill:#d5dd55;fill-opacity:0.15686275;stroke:#ffffff;stroke-width:0;stroke-miterlimit:4;stroke-opacity:1;stroke-dasharray:none"
       id="path6484-8"
       sodipodi:cx="-11.3125"
       sodipodi:cy="22.0625"
       sodipodi:rx="6.6875"
       sodipodi:ry="7.8125"
       d="m -4.625,22.0625 c 0,4.314725 -2.9940957,7.8125 -6.6875,7.8125 -3.693404,0 -6.6875,-3.497775 -6.6875,-7.8125 0,-4.314725 2.994096,-7.8125 6.6875,-7.8125 3.6934043,0 6.6875,3.497775 6.6875,7.8125 z"
       transform="matrix(1.5183321,0,0,1.2996923,81.17613,923.68773)" />
    <path
       sodipodi:type="arc"
       style="fill:#d5dd55;fill-opacity:1;stroke:#ffffff;stroke-width:0;stroke-miterlimit:4;stroke-opacity:1;stroke-dasharray:none"
       id="path5213-1-5"
       sodipodi:cx="110.75"
       sodipodi:cy="-25.25"
       sodipodi:rx="8.75"
       sodipodi:ry="16.75"
       d="m 119.5,-25.25 c 0,9.25077 -3.91751,16.75 -8.75,16.75 -4.83249,0 -8.75,-7.49923 -8.75,-16.75 0,-9.25077 3.91751,-16.75 8.75,-16.75 4.83249,0 8.75,7.49923 8.75,16.75 z"
       transform="matrix(1.3714286,0,0,0.71641791,-123.88572,1042.4517)" />
  </g>
</svg>
