<?xml version="1.0" encoding="UTF-8" standalone="no"?>
<!-- Created with Inkscape (http://www.inkscape.org/) -->

<svg
   xmlns:dc="http://purl.org/dc/elements/1.1/"
   xmlns:cc="http://creativecommons.org/ns#"
   xmlns:rdf="http://www.w3.org/1999/02/22-rdf-syntax-ns#"
   xmlns:svg="http://www.w3.org/2000/svg"
   xmlns="http://www.w3.org/2000/svg"
   xmlns:sodipodi="http://sodipodi.sourceforge.net/DTD/sodipodi-0.dtd"
   xmlns:inkscape="http://www.inkscape.org/namespaces/inkscape"
   id="svg7358"
   version="1.1"
   inkscape:version="0.48.2 r9819"
   width="64"
   height="64"
   xml:space="preserve"
   sodipodi:docname="evil-icons.ai"
   inkscape:export-filename="C:\Users\Matt\Documents\Dev\libgdx\box_puzzle\android\assets\refresh.png"
   inkscape:export-xdpi="180"
   inkscape:export-ydpi="180"><metadata
     id="metadata7364"><rdf:RDF><cc:Work
         rdf:about=""><dc:format>image/svg+xml</dc:format><dc:type
           rdf:resource="http://purl.org/dc/dcmitype/StillImage" /><dc:title></dc:title></cc:Work></rdf:RDF></metadata><defs
     id="defs7362"><clipPath
       clipPathUnits="userSpaceOnUse"
       id="clipPath7372"><path
         d="M 0,50 50,50 50,0 0,0 0,50 z"
         id="path7374"
         inkscape:connector-curvature="0" /></clipPath></defs><sodipodi:namedview
     pagecolor="#ffffff"
     bordercolor="#666666"
     borderopacity="1"
     objecttolerance="10"
     gridtolerance="10"
     guidetolerance="10"
     inkscape:pageopacity="0"
     inkscape:pageshadow="2"
     inkscape:window-width="1920"
     inkscape:window-height="1028"
     id="namedview7360"
     showgrid="false"
     inkscape:zoom="3.776"
     inkscape:cx="-10.063559"
     inkscape:cy="31.25"
     inkscape:window-x="-8"
     inkscape:window-y="-8"
     inkscape:window-maximized="1"
     inkscape:current-layer="g7366" /><g
     inkscape:groupmode="layer"
     id="layer2"
     inkscape:label="Layer"
     transform="translate(0,1.5)" /><g
     id="g7366"
     inkscape:groupmode="layer"
     inkscape:label="evil-icons"
     transform="matrix(1.25,0,0,-1.25,0,64)"><g
       id="g7368"
       style="fill:#dcb556;fill-opacity:1"
       transform="matrix(1.4933333,0,0,1.4933333,-11.733333,-10.824234)"><g
         id="g7370"
         clip-path="url(#clipPath7372)"
         style="fill:#dcb556;fill-opacity:1"><g
           id="g7376"
           transform="translate(25,12.0698)"
           style="fill:#dcb556;fill-opacity:1"><path
             d="m 0,0 c -7.129,0 -12.93,5.801 -12.93,12.93 0,3.154 1.148,6.192 3.233,8.553 l 1.395,-1.23 C -10.087,18.231 -11.07,15.63 -11.07,12.93 -11.07,6.826 -6.104,1.86 0,1.86 c 1.61,0 3.162,0.338 4.612,1.004 L 5.388,1.173 C 3.692,0.395 1.879,0 0,0"
             style="fill:#dcb556;fill-opacity:1;fill-rule:nonzero;stroke:none"
             id="path7378"
             inkscape:connector-curvature="0" /></g><g
           id="g7380"
           transform="translate(34.6372,16.3799)"
           style="fill:#dcb556;fill-opacity:1"><path
             d="m 0,0 -1.386,1.24 c 1.818,2.031 2.819,4.652 2.819,7.38 0,6.104 -4.966,11.07 -11.07,11.07 -1.61,0 -3.161,-0.337 -4.612,-1.003 l -0.775,1.69 c 1.695,0.779 3.508,1.173 5.387,1.173 7.129,0 12.93,-5.8 12.93,-12.93 C 3.293,5.434 2.124,2.372 0,0"
             style="fill:#dcb556;fill-opacity:1;fill-rule:nonzero;stroke:none"
             id="path7382"
             inkscape:connector-curvature="0" /></g><g
           id="g7384"
           transform="translate(18,26)"
           style="fill:#dcb556;fill-opacity:1"><path
             d="m 0,0 -2,0 0,6 -6,0 0,2 8,0 0,-8 z"
             style="fill:#dcb556;fill-opacity:1;fill-rule:nonzero;stroke:none"
             id="path7386"
             inkscape:connector-curvature="0" /></g><g
           id="g7388"
           transform="translate(40,16)"
           style="fill:#dcb556;fill-opacity:1"><path
             d="m 0,0 -8,0 0,8 2,0 0,-6 6,0 0,-2 z"
             style="fill:#dcb556;fill-opacity:1;fill-rule:nonzero;stroke:none"
             id="path7390"
             inkscape:connector-curvature="0" /></g></g></g></g></svg>