<?xml version="1.0" encoding="UTF-8" standalone="no"?>
<!-- Created with Inkscape (http://www.inkscape.org/) -->

<svg
   xmlns:dc="http://purl.org/dc/elements/1.1/"
   xmlns:cc="http://creativecommons.org/ns#"
   xmlns:rdf="http://www.w3.org/1999/02/22-rdf-syntax-ns#"
   xmlns:svg="http://www.w3.org/2000/svg"
   xmlns="http://www.w3.org/2000/svg"
   xmlns:sodipodi="http://sodipodi.sourceforge.net/DTD/sodipodi-0.dtd"
   xmlns:inkscape="http://www.inkscape.org/namespaces/inkscape"
   width="256"
   height="128"
   id="svg3832"
   version="1.1"
   inkscape:version="0.91 r13725"
   sodipodi:docname="yellow_animation.svg"
   inkscape:export-filename="/Users/Matt/Documents/Dev/libgdx/box_puzzle/android/assets/640/red_tile.png"
   inkscape:export-xdpi="90"
   inkscape:export-ydpi="90">
  <defs
     id="defs3834" />
  <sodipodi:namedview
     id="base"
     pagecolor="#ffffff"
     bordercolor="#666666"
     borderopacity="1.0"
     inkscape:pageopacity="0.0"
     inkscape:pageshadow="2"
     inkscape:zoom="2.421875"
     inkscape:cx="10.356064"
     inkscape:cy="76.064633"
     inkscape:document-units="px"
     inkscape:current-layer="layer1"
     showgrid="false"
     inkscape:window-width="1440"
     inkscape:window-height="802"
     inkscape:window-x="0"
     inkscape:window-y="0"
     inkscape:window-maximized="1" />
  <metadata
     id="metadata3837">
    <rdf:RDF>
      <cc:Work
         rdf:about="">
        <dc:format>image/svg+xml</dc:format>
        <dc:type
           rdf:resource="http://purl.org/dc/dcmitype/StillImage" />
        <dc:title></dc:title>
      </cc:Work>
    </rdf:RDF>
  </metadata>
  <g
     inkscape:label="Layer 1"
     inkscape:groupmode="layer"
     id="layer1"
     transform="translate(0,-924.36218)">
    <path
       sodipodi:type="arc"
       style="fill:#d5dd55;fill-opacity:0.39215687;stroke:#ffffff;stroke-width:0;stroke-miterlimit:4;stroke-opacity:1;stroke-dasharray:none"
       id="path3840"
       sodipodi:cx="31"
       sodipodi:cy="32.25"
       sodipodi:rx="28.75"
       sodipodi:ry="27.5"
       d="M 59.75,32.25 A 28.75,27.5 0 0 1 31,59.75 28.75,27.5 0 0 1 2.25,32.25 28.75,27.5 0 0 1 31,4.75 28.75,27.5 0 0 1 59.75,32.25 Z"
       transform="matrix(0.97391304,0,0,1.0181818,1.8086957,987.52582)" />
    <ellipse
       style="fill:#d5dd55;fill-opacity:0.39215687;stroke:#ffffff;stroke-width:0;stroke-miterlimit:4;stroke-dasharray:none;stroke-opacity:1"
       id="path3840-1"
       cx="32"
       cy="956.36218"
       rx="23.999996"
       ry="23.999994" />
    <circle
       style="fill:#d5dd55;fill-opacity:0.39215687;stroke:#ffffff;stroke-width:0;stroke-miterlimit:4;stroke-dasharray:none;stroke-opacity:1"
       id="path3840-1-7"
       cx="97.000717"
       cy="956.36218"
       r="25" />
    <path
       sodipodi:type="arc"
       style="fill:#d5dd55;fill-opacity:0.39215687;stroke:#ffffff;stroke-width:0;stroke-miterlimit:4;stroke-opacity:1;stroke-dasharray:none"
       id="path3840-1-4"
       sodipodi:cx="31"
       sodipodi:cy="32.25"
       sodipodi:rx="28.75"
       sodipodi:ry="27.5"
       d="M 59.75,32.25 A 28.75,27.5 0 0 1 31,59.75 28.75,27.5 0 0 1 2.25,32.25 28.75,27.5 0 0 1 31,4.75 28.75,27.5 0 0 1 59.75,32.25 Z"
       transform="matrix(1.0086957,0,0,1.0545455,64.730435,986.35309)" />
    <circle
       style="fill:#d5dd55;fill-opacity:0.39215687;stroke:#ffffff;stroke-width:0;stroke-miterlimit:4;stroke-dasharray:none;stroke-opacity:1"
       id="path3840-1-0"
       cx="160"
       cy="956.36218"
       r="26" />
    <path
       sodipodi:type="arc"
       style="fill:#d5dd55;fill-opacity:0.39215687;stroke:#ffffff;stroke-width:0;stroke-miterlimit:4;stroke-opacity:1;stroke-dasharray:none"
       id="path3840-1-9"
       sodipodi:cx="31"
       sodipodi:cy="32.25"
       sodipodi:rx="28.75"
       sodipodi:ry="27.5"
       d="M 59.75,32.25 A 28.75,27.5 0 0 1 31,59.75 28.75,27.5 0 0 1 2.25,32.25 28.75,27.5 0 0 1 31,4.75 28.75,27.5 0 0 1 59.75,32.25 Z"
       transform="matrix(1.0434783,0,0,1.0909091,127.65217,985.18036)" />
    <path
       sodipodi:type="arc"
       style="fill:#d5dd55;fill-opacity:0.39215687;stroke:#ffffff;stroke-width:0;stroke-miterlimit:4;stroke-opacity:1;stroke-dasharray:none"
       id="path3840-1-48"
       sodipodi:cx="31"
       sodipodi:cy="32.25"
       sodipodi:rx="28.75"
       sodipodi:ry="27.5"
       d="M 59.75,32.25 A 28.75,27.5 0 0 1 31,59.75 28.75,27.5 0 0 1 2.25,32.25 28.75,27.5 0 0 1 31,4.75 28.75,27.5 0 0 1 59.75,32.25 Z"
       transform="matrix(1.0782609,0,0,1.1272727,190.57391,984.00764)" />
    <circle
       style="fill:#d5dd55;fill-opacity:0.39215687;stroke:#ffffff;stroke-width:0;stroke-miterlimit:4;stroke-dasharray:none;stroke-opacity:1"
       id="path3840-1-8"
       cx="224"
       cy="956.36218"
       r="27" />
  </g>
</svg>
